<svg width="35" height="39" viewBox="0 0 35 39" fill="none" xmlns="http://www.w3.org/2000/svg">
<path d="M27.636 7C28.4075 7 29.1475 7.33714 29.693 7.93726C30.2386 8.53737 30.5451 9.35131 30.5451 10.2V11.8H21.8178C19.889 11.8 18.0391 12.6429 16.6752 14.1431C15.3113 15.6434 14.5451 17.6783 14.5451 19.8C14.5451 21.9217 15.3113 23.9566 16.6752 25.4569C18.0391 26.9571 19.889 27.8 21.8178 27.8H30.5451V29.4C30.5451 30.2487 30.2386 31.0626 29.693 31.6627C29.1475 32.2629 28.4075 32.6 27.636 32.6H7.27237C6.50083 32.6 5.76089 32.2629 5.21533 31.6627C4.66977 31.0626 4.36328 30.2487 4.36328 29.4V10.2C4.36328 9.35131 4.66977 8.53737 5.21533 7.93726C5.76089 7.33714 6.50083 7 7.27237 7H27.636ZM29.0906 15C29.8621 15 30.602 15.3371 31.1476 15.9373C31.6932 16.5374 31.9996 17.3513 31.9996 18.2V21.4C31.9996 22.2487 31.6932 23.0626 31.1476 23.6627C30.602 24.2629 29.8621 24.6 29.0906 24.6H21.8178C20.6605 24.6 19.5506 24.0943 18.7323 23.1941C17.9139 22.2939 17.4542 21.073 17.4542 19.8C17.4542 18.527 17.9139 17.3061 18.7323 16.4059C19.5506 15.5057 20.6605 15 21.8178 15H29.0906ZM21.8178 18.2C21.4321 18.2 21.0621 18.3686 20.7893 18.6686C20.5165 18.9687 20.3633 19.3757 20.3633 19.8C20.3633 20.2243 20.5165 20.6313 20.7893 20.9314C21.0621 21.2314 21.4321 21.4 21.8178 21.4C22.2036 21.4 22.5736 21.2314 22.8463 20.9314C23.1191 20.6313 23.2724 20.2243 23.2724 19.8C23.2724 19.3757 23.1191 18.9687 22.8463 18.6686C22.5736 18.3686 22.2036 18.2 21.8178 18.2Z" fill="#292929"/>
</svg>
