<svg width="42" height="42" viewBox="0 0 42 42" fill="none" xmlns="http://www.w3.org/2000/svg">
<path d="M18.0846 30.5833L32.7721 15.8958L29.8555 12.9792L18.0846 24.75L12.1471 18.8125L9.23047 21.7292L18.0846 30.5833ZM21.0013 41.8333C18.1194 41.8333 15.411 41.2861 12.8763 40.1917C10.3416 39.0986 8.13672 37.6146 6.26172 35.7396C4.38672 33.8646 2.90269 31.6597 1.80964 29.125C0.715191 26.5903 0.167969 23.882 0.167969 21C0.167969 18.1181 0.715191 15.4097 1.80964 12.875C2.90269 10.3403 4.38672 8.13542 6.26172 6.26042C8.13672 4.38542 10.3416 2.9007 12.8763 1.80626C15.411 0.713199 18.1194 0.166672 21.0013 0.166672C23.8832 0.166672 26.5916 0.713199 29.1263 1.80626C31.661 2.9007 33.8659 4.38542 35.7409 6.26042C37.6159 8.13542 39.0999 10.3403 40.193 12.875C41.2874 15.4097 41.8346 18.1181 41.8346 21C41.8346 23.882 41.2874 26.5903 40.193 29.125C39.0999 31.6597 37.6159 33.8646 35.7409 35.7396C33.8659 37.6146 31.661 39.0986 29.1263 40.1917C26.5916 41.2861 23.8832 41.8333 21.0013 41.8333Z" fill="black"/>
</svg>
