<svg width="30" height="30" viewBox="0 0 30 30" fill="none" xmlns="http://www.w3.org/2000/svg">
<path d="M28.0455 11.6667V26.6667C28.0455 27.5507 27.7391 28.3986 27.1935 29.0237C26.6479 29.6488 25.908 30 25.1365 30H4.77282C4.00128 30 3.26134 29.6488 2.71578 29.0237C2.17022 28.3986 1.86373 27.5507 1.86373 26.6667V11.6667H28.0455ZM17.8637 16.6667H12.0455C11.6598 16.6667 11.2898 16.8423 11.017 17.1548C10.7442 17.4674 10.591 17.8913 10.591 18.3333C10.591 18.7754 10.7442 19.1993 11.017 19.5118C11.2898 19.8244 11.6598 20 12.0455 20H17.8637C18.2495 20 18.6195 19.8244 18.8922 19.5118C19.165 19.1993 19.3183 18.7754 19.3183 18.3333C19.3183 17.8913 19.165 17.4674 18.8922 17.1548C18.6195 16.8423 18.2495 16.6667 17.8637 16.6667ZM26.591 0C27.3625 0 28.1025 0.351189 28.648 0.976311C29.1936 1.60143 29.5001 2.44928 29.5001 3.33333V8.33333H0.40918V3.33333C0.40918 2.44928 0.715672 1.60143 1.26123 0.976311C1.80679 0.351189 2.54673 0 3.31827 0H26.591Z" fill="#292929"/>
</svg>
