<svg width="61" height="60" viewBox="0 0 61 60" fill="none" xmlns="http://www.w3.org/2000/svg">
<g clip-path="url(#clip0_752_13037)">
<path d="M10.5 10V50C10.5 51.3261 11.0268 52.5978 11.9645 53.5355C12.9021 54.4732 14.1739 55 15.5 55H45.5C46.8261 55 48.0979 54.4732 49.0355 53.5355C49.9732 52.5978 50.5 51.3261 50.5 50V20.855C50.4999 20.1889 50.3667 19.5295 50.1083 18.9156C49.8499 18.3017 49.4713 17.7456 48.995 17.28L37.895 6.425C36.9609 5.51164 35.7064 5.00016 34.4 5H15.5C14.1739 5 12.9021 5.52678 11.9645 6.46447C11.0268 7.40215 10.5 8.67392 10.5 10Z" stroke="#E0E0E0" stroke-width="4" stroke-linecap="round" stroke-linejoin="round"/>
<path d="M35.5 5V15C35.5 16.3261 36.0268 17.5979 36.9645 18.5355C37.9021 19.4732 39.1739 20 40.5 20H50.5" stroke="#E0E0E0" stroke-width="4" stroke-linejoin="round"/>
<path d="M24.5 26C25 27.5 24.5 30.9 18.5 32.5" stroke="#E0E0E0" stroke-width="2" stroke-linecap="round"/>
<path d="M35.6465 26C35.1465 27.5 35.6465 30.9 41.6465 32.5" stroke="#E0E0E0" stroke-width="2" stroke-linecap="round"/>
<path d="M22.5 43.3129C25 40.8129 31.5 37.3129 37.5 43.3129" stroke="#E0E0E0" stroke-width="2" stroke-linecap="round"/>
<circle cx="51.5" cy="6" r="3" stroke="#E0E0E0" stroke-width="2"/>
<circle cx="3.5" cy="15" r="2" stroke="#E0E0E0" stroke-width="2"/>
<circle cx="57.5" cy="50" r="2" stroke="#E0E0E0" stroke-width="2"/>
<path fill-rule="evenodd" clip-rule="evenodd" d="M55.609 11.2888C55.2209 10.8959 54.5915 10.8959 54.2033 11.2888C53.8152 11.6816 53.8152 12.3186 54.2033 12.7115L55.4913 14.0149L54.1562 15.3661C53.7681 15.759 53.7681 16.3959 54.1562 16.7888C54.5444 17.1816 55.1738 17.1816 55.5619 16.7888L56.897 15.4376L58.232 16.7888C58.6202 17.1816 59.2495 17.1816 59.6377 16.7888C60.0259 16.3959 60.0259 15.759 59.6377 15.3661L58.3027 14.0149L59.5906 12.7115C59.9788 12.3186 59.9788 11.6816 59.5906 11.2888C59.2024 10.8959 58.5731 10.8959 58.1849 11.2888L56.897 12.5923L55.609 11.2888ZM2.60917 45.289C2.221 44.8961 1.59165 44.8961 1.20347 45.289C0.8153 45.6818 0.8153 46.3188 1.20347 46.7116L2.49141 48.0151L1.15636 49.3663C0.768191 49.7591 0.768191 50.3961 1.15636 50.789C1.54454 51.1818 2.17389 51.1818 2.56207 50.789L3.89711 49.4378L5.23215 50.789C5.62032 51.1818 6.24968 51.1818 6.63785 50.789C7.02602 50.3961 7.02602 49.7591 6.63785 49.3663L5.30281 48.0151L6.59074 46.7116C6.97891 46.3188 6.97891 45.6818 6.59074 45.289C6.20257 44.8961 5.57321 44.8961 5.18504 45.289L3.89711 46.5924L2.60917 45.289Z" fill="#E0E0E0"/>
</g>
<defs>
<clipPath id="clip0_752_13037">
<rect width="60" height="60" fill="white" transform="translate(0.5)"/>
</clipPath>
</defs>
</svg>
