<svg width="41" height="40" viewBox="0 0 41 40" fill="none" xmlns="http://www.w3.org/2000/svg">
<g clip-path="url(#clip0_289_10378)">
<path d="M25.9074 16.6667C25.6489 16.1629 25.2776 15.744 24.8306 15.4516C24.3836 15.1592 23.8763 15.0035 23.3593 15H19.7593V11.6667C19.7593 11.2246 19.6032 10.8007 19.3253 10.4882C19.0475 10.1756 18.6707 10 18.2778 10H3.46296C2.67714 10 1.92349 10.3512 1.36783 10.9763C0.812168 11.6014 0.5 12.4493 0.5 13.3333V30C0.500533 30.5845 0.637693 31.1586 0.897721 31.6647C1.15775 32.1708 1.5315 32.5911 1.98148 32.8833C1.92844 34.4304 2.42386 35.9379 3.35877 37.074C4.29367 38.2102 5.59147 38.882 6.96667 38.9417C8.34186 39.0013 9.68181 38.444 10.6917 37.3922C11.7016 36.3405 12.2988 34.8804 12.3519 33.3333H16.9444C17.1083 34.7278 17.717 36.0078 18.6572 36.935C19.5975 37.8622 20.8052 38.3734 22.0556 38.3734C23.3059 38.3734 24.5136 37.8622 25.4539 36.935C26.3941 36.0078 27.0028 34.7278 27.1667 33.3333C27.9525 33.3333 28.7061 32.9821 29.2618 32.357C29.8175 31.7319 30.1296 30.8841 30.1296 30V25C30.1273 24.6959 30.0559 24.3976 29.9222 24.1333L25.9074 16.6667ZM19.7593 18.3333H23.3593L26.0259 23.3333H19.7593V18.3333ZM7.16667 35C6.72715 35 6.29751 34.8534 5.93207 34.5787C5.56662 34.304 5.2818 33.9135 5.1136 33.4567C4.94541 32.9999 4.9014 32.4972 4.98714 32.0123C5.07289 31.5273 5.28453 31.0819 5.59532 30.7322C5.9061 30.3826 6.30206 30.1445 6.73313 30.048C7.1642 29.9516 7.61102 30.0011 8.01707 30.1903C8.42313 30.3795 8.7702 30.7 9.01438 31.1111C9.25856 31.5222 9.38889 32.0055 9.38889 32.5C9.38889 33.163 9.15476 33.7989 8.73802 34.2678C8.32127 34.7366 7.75604 35 7.16667 35ZM21.9815 35C21.542 35 21.1123 34.8534 20.7469 34.5787C20.3814 34.304 20.0966 33.9135 19.9284 33.4567C19.7602 32.9999 19.7162 32.4972 19.802 32.0123C19.8877 31.5273 20.0993 31.0819 20.4101 30.7322C20.7209 30.3826 21.1169 30.1445 21.5479 30.048C21.979 29.9516 22.4258 30.0011 22.8319 30.1903C23.2379 30.3795 23.585 30.7 23.8292 31.1111C24.0734 31.5222 24.2037 32.0055 24.2037 32.5C24.2037 33.163 23.9696 33.7989 23.5528 34.2678C23.1361 34.7366 22.5709 35 21.9815 35Z" fill="#292929"/>
<path d="M8.64844 17.5L8.64844 20.3333C8.64844 20.6095 8.87229 20.8333 9.14844 20.8333H11.6114" stroke="white" stroke-linecap="round"/>
</g>
<defs>
<clipPath id="clip0_289_10378">
<rect width="40" height="40" fill="white" transform="translate(0.5)"/>
</clipPath>
</defs>
</svg>
