<svg width="15" height="18" viewBox="0 0 15 18" fill="none" xmlns="http://www.w3.org/2000/svg">
<path d="M5.5 14.0003C5.04167 14.0003 4.64944 13.8373 4.32333 13.5112C3.99667 13.1845 3.83333 12.792 3.83333 12.3337V2.33366C3.83333 1.87533 3.99667 1.48283 4.32333 1.15616C4.64944 0.830048 5.04167 0.666992 5.5 0.666992H13C13.4583 0.666992 13.8508 0.830048 14.1775 1.15616C14.5036 1.48283 14.6667 1.87533 14.6667 2.33366V12.3337C14.6667 12.792 14.5036 13.1845 14.1775 13.5112C13.8508 13.8373 13.4583 14.0003 13 14.0003H5.5ZM5.5 12.3337H13V2.33366H5.5V12.3337ZM2.16667 17.3337C1.70833 17.3337 1.31583 17.1706 0.989167 16.8445C0.663055 16.5178 0.5 16.1253 0.5 15.667V4.83366C0.5 4.59755 0.58 4.39949 0.74 4.23949C0.899445 4.08005 1.09722 4.00032 1.33333 4.00032C1.56944 4.00032 1.7675 4.08005 1.9275 4.23949C2.08694 4.39949 2.16667 4.59755 2.16667 4.83366V15.667H10.5C10.7361 15.667 10.9342 15.747 11.0942 15.907C11.2536 16.0664 11.3333 16.2642 11.3333 16.5003C11.3333 16.7364 11.2536 16.9342 11.0942 17.0937C10.9342 17.2537 10.7361 17.3337 10.5 17.3337H2.16667ZM5.5 2.33366V12.3337V2.33366Z" fill="#292929"/>
</svg>
