<svg width="50" height="50" viewBox="0 0 50 50" fill="none" xmlns="http://www.w3.org/2000/svg">
<path d="M9.3121 43.7502H40.6871C43.8954 43.7502 45.8954 40.271 44.2913 37.5002L28.6038 10.396C26.9996 7.62516 22.9996 7.62516 21.3954 10.396L5.70793 37.5002C4.10377 40.271 6.10377 43.7502 9.3121 43.7502ZM24.9996 29.1668C23.8538 29.1668 22.9163 28.2293 22.9163 27.0835V22.9168C22.9163 21.771 23.8538 20.8335 24.9996 20.8335C26.1454 20.8335 27.0829 21.771 27.0829 22.9168V27.0835C27.0829 28.2293 26.1454 29.1668 24.9996 29.1668ZM27.0829 37.5002H22.9163V33.3335H27.0829V37.5002Z" fill="black"/>
</svg>
