<svg width="36" height="40" viewBox="0 0 36 40" fill="none" xmlns="http://www.w3.org/2000/svg">
<path d="M31.0455 16.6667V31.6667C31.0455 32.5507 30.7391 33.3986 30.1935 34.0237C29.6479 34.6488 28.908 35 28.1365 35H7.77282C7.00128 35 6.26134 34.6488 5.71578 34.0237C5.17022 33.3986 4.86373 32.5507 4.86373 31.6667V16.6667H31.0455ZM20.8637 21.6667H15.0455C14.6598 21.6667 14.2898 21.8423 14.017 22.1548C13.7442 22.4674 13.591 22.8913 13.591 23.3333C13.591 23.7754 13.7442 24.1993 14.017 24.5118C14.2898 24.8244 14.6598 25 15.0455 25H20.8637C21.2495 25 21.6195 24.8244 21.8922 24.5118C22.165 24.1993 22.3183 23.7754 22.3183 23.3333C22.3183 22.8913 22.165 22.4674 21.8922 22.1548C21.6195 21.8423 21.2495 21.6667 20.8637 21.6667ZM29.591 5C30.3625 5 31.1025 5.35119 31.648 5.97631C32.1936 6.60143 32.5001 7.44928 32.5001 8.33333V13.3333H3.40918V8.33333C3.40918 7.44928 3.71567 6.60143 4.26123 5.97631C4.80679 5.35119 5.54673 5 6.31827 5H29.591Z" fill="#292929"/>
</svg>
