<svg width="31" height="29" viewBox="0 0 31 29" fill="none" xmlns="http://www.w3.org/2000/svg">
<path d="M25.9074 6.66667C25.6489 6.16287 25.2776 5.74397 24.8306 5.45158C24.3836 5.1592 23.8763 5.00351 23.3593 5H19.7593V1.66667C19.7593 1.22464 19.6032 0.800716 19.3253 0.488156C19.0475 0.175595 18.6707 0 18.2778 0H3.46296C2.67714 0 1.92349 0.351189 1.36783 0.976311C0.812168 1.60143 0.5 2.44928 0.5 3.33333V20C0.500533 20.5845 0.637693 21.1586 0.897721 21.6647C1.15775 22.1708 1.5315 22.5911 1.98148 22.8833C1.92844 24.4304 2.42386 25.9379 3.35877 27.074C4.29367 28.2102 5.59147 28.882 6.96667 28.9417C8.34186 29.0013 9.68181 28.444 10.6917 27.3922C11.7016 26.3405 12.2988 24.8804 12.3519 23.3333H16.9444C17.1083 24.7278 17.717 26.0078 18.6572 26.935C19.5975 27.8622 20.8052 28.3734 22.0556 28.3734C23.3059 28.3734 24.5136 27.8622 25.4539 26.935C26.3941 26.0078 27.0028 24.7278 27.1667 23.3333C27.9525 23.3333 28.7061 22.9821 29.2618 22.357C29.8175 21.7319 30.1296 20.8841 30.1296 20V15C30.1273 14.6959 30.0559 14.3976 29.9222 14.1333L25.9074 6.66667ZM19.7593 8.33333H23.3593L26.0259 13.3333H19.7593V8.33333ZM7.16667 25C6.72715 25 6.29751 24.8534 5.93207 24.5787C5.56662 24.304 5.2818 23.9135 5.1136 23.4567C4.94541 22.9999 4.9014 22.4972 4.98714 22.0123C5.07289 21.5273 5.28453 21.0819 5.59532 20.7322C5.9061 20.3826 6.30206 20.1445 6.73313 20.048C7.1642 19.9516 7.61102 20.0011 8.01707 20.1903C8.42313 20.3795 8.7702 20.7 9.01438 21.1111C9.25856 21.5222 9.38889 22.0055 9.38889 22.5C9.38889 23.163 9.15476 23.7989 8.73802 24.2678C8.32127 24.7366 7.75604 25 7.16667 25ZM21.9815 25C21.542 25 21.1123 24.8534 20.7469 24.5787C20.3814 24.304 20.0966 23.9135 19.9284 23.4567C19.7602 22.9999 19.7162 22.4972 19.802 22.0123C19.8877 21.5273 20.0993 21.0819 20.4101 20.7322C20.7209 20.3826 21.1169 20.1445 21.5479 20.048C21.979 19.9516 22.4258 20.0011 22.8319 20.1903C23.2379 20.3795 23.585 20.7 23.8292 21.1111C24.0734 21.5222 24.2037 22.0055 24.2037 22.5C24.2037 23.163 23.9696 23.7989 23.5528 24.2678C23.1361 24.7366 22.5709 25 21.9815 25Z" fill="#292929"/>
</svg>
