<svg width="28" height="26" viewBox="0 0 28 26" fill="none" xmlns="http://www.w3.org/2000/svg">
<path d="M23.636 0C24.4075 0 25.1475 0.337142 25.693 0.937258C26.2386 1.53737 26.5451 2.35131 26.5451 3.2V4.8H17.8178C15.889 4.8 14.0391 5.64285 12.6752 7.14315C11.3113 8.64344 10.5451 10.6783 10.5451 12.8C10.5451 14.9217 11.3113 16.9566 12.6752 18.4569C14.0391 19.9571 15.889 20.8 17.8178 20.8H26.5451V22.4C26.5451 23.2487 26.2386 24.0626 25.693 24.6627C25.1475 25.2629 24.4075 25.6 23.636 25.6H3.27237C2.50083 25.6 1.76089 25.2629 1.21533 24.6627C0.669774 24.0626 0.363281 23.2487 0.363281 22.4V3.2C0.363281 2.35131 0.669774 1.53737 1.21533 0.937258C1.76089 0.337142 2.50083 0 3.27237 0H23.636ZM25.0906 8C25.8621 8 26.602 8.33714 27.1476 8.93726C27.6932 9.53738 27.9996 10.3513 27.9996 11.2V14.4C27.9996 15.2487 27.6932 16.0626 27.1476 16.6627C26.602 17.2629 25.8621 17.6 25.0906 17.6H17.8178C16.6605 17.6 15.5506 17.0943 14.7323 16.1941C13.9139 15.2939 13.4542 14.073 13.4542 12.8C13.4542 11.527 13.9139 10.3061 14.7323 9.40589C15.5506 8.50571 16.6605 8 17.8178 8H25.0906ZM17.8178 11.2C17.4321 11.2 17.0621 11.3686 16.7893 11.6686C16.5165 11.9687 16.3633 12.3757 16.3633 12.8C16.3633 13.2243 16.5165 13.6313 16.7893 13.9314C17.0621 14.2314 17.4321 14.4 17.8178 14.4C18.2036 14.4 18.5736 14.2314 18.8463 13.9314C19.1191 13.6313 19.2724 13.2243 19.2724 12.8C19.2724 12.3757 19.1191 11.9687 18.8463 11.6686C18.5736 11.3686 18.2036 11.2 17.8178 11.2Z" fill="#292929"/>
</svg>
