<svg width="16" height="21" viewBox="0 0 16 21" fill="none" xmlns="http://www.w3.org/2000/svg">
<path d="M8 0.5C3.6 0.5 0 4.1 0 8.5C0 13.9 7 20 7.3 20.3C7.5 20.4 7.8 20.5 8 20.5C8.2 20.5 8.5 20.4 8.7 20.3C9 20 16 13.9 16 8.5C16 4.1 12.4 0.5 8 0.5ZM8 18.2C5.9 16.2 2 11.9 2 8.5C2 5.2 4.7 2.5 8 2.5C11.3 2.5 14 5.2 14 8.5C14 11.8 10.1 16.2 8 18.2ZM8 4.5C5.8 4.5 4 6.3 4 8.5C4 10.7 5.8 12.5 8 12.5C10.2 12.5 12 10.7 12 8.5C12 6.3 10.2 4.5 8 4.5ZM8 10.5C6.9 10.5 6 9.6 6 8.5C6 7.4 6.9 6.5 8 6.5C9.1 6.5 10 7.4 10 8.5C10 9.6 9.1 10.5 8 10.5Z" fill="#292929"/>
</svg>
