<svg width="96" height="46" viewBox="0 0 96 46" fill="none" xmlns="http://www.w3.org/2000/svg">
<path d="M27.9599 1H20.0167" stroke="black"/>
<path d="M27.3241 4.94141H14.9327" stroke="black"/>
<path d="M27.3248 8.8833H3.81299" stroke="black"/>
<path d="M26.6889 12.8252H8.89612" stroke="black"/>
<path d="M26.3717 17.0945H12.3917" stroke="black"/>
<path d="M25.7358 21.3652H4.76575" stroke="black"/>
<path d="M26.0537 25.3064H0" stroke="black"/>
<path d="M42.8929 37.7888H73.7125" stroke="black"/>
<path d="M70.5356 28.2632V38.1172" stroke="black"/>
<path d="M87.0568 38.117H94C94.5523 38.117 95 37.6693 95 37.117V33.8615C95 33.3093 94.5523 32.8615 94 32.8615H93.8622C93.2774 32.8615 92.8173 32.3618 92.8656 31.7789L93.7291 21.3652L94.3495 12.7068C94.3594 12.5682 94.3403 12.429 94.2934 12.2981L91.4247 4.29066C91.2823 3.89315 90.9055 3.62793 90.4833 3.62793H73.0768" stroke="black"/>
<path d="M88.597 6.58447H75.9129C75.3894 6.58447 74.9545 6.98822 74.9157 7.51027L74.1113 18.3205C74.0682 18.9004 74.527 19.3947 75.1085 19.3947H90.556C91.0885 19.3947 91.5276 18.9774 91.5547 18.4455L91.8133 13.3667C91.8204 13.2264 91.7979 13.0861 91.7472 12.955L89.5296 7.22362C89.3805 6.83841 89.01 6.58447 88.597 6.58447Z" stroke="black"/>
<path d="M25.7354 27.9341V37.1166C25.7354 37.6689 26.1831 38.1166 26.7354 38.1166H29.8658" stroke="black"/>
<path d="M25.743 27.5198L27.5763 1.92854C27.6138 1.40533 28.0492 1 28.5737 1H71.9815C72.57 1 73.0312 1.50571 72.9772 2.09173L70.6197 27.683C70.5723 28.1976 70.1406 28.5913 69.6239 28.5913H26.7404C26.16 28.5913 25.7015 28.0988 25.743 27.5198Z" stroke="black"/>
<path d="M43.0283 37.7882C43.0283 41.7217 40.0868 44.8429 36.5383 44.8429C32.9899 44.8429 30.0483 41.7217 30.0483 37.7882C30.0483 33.8546 32.9899 30.7334 36.5383 30.7334C40.0868 30.7334 43.0283 33.8546 43.0283 37.7882Z" stroke="black"/>
<path d="M39.2159 38.1172C39.2159 39.6709 38.0017 40.9019 36.5386 40.9019C35.0755 40.9019 33.8613 39.6709 33.8613 38.1172C33.8613 36.5635 35.0755 35.3325 36.5386 35.3325C38.0017 35.3325 39.2159 36.5635 39.2159 38.1172Z" stroke="black"/>
<path d="M86.8759 38.4454C86.8759 42.3789 83.9343 45.5001 80.3859 45.5001C76.8374 45.5001 73.8959 42.3789 73.8959 38.4454C73.8959 34.5119 76.8374 31.3906 80.3859 31.3906C83.9343 31.3906 86.8759 34.5119 86.8759 38.4454Z" stroke="black"/>
<path d="M83.0618 38.7739C83.0618 40.3277 81.8476 41.5586 80.3845 41.5586C78.9215 41.5586 77.7073 40.3277 77.7073 38.7739C77.7073 37.2202 78.9215 35.9893 80.3845 35.9893C81.8476 35.9893 83.0618 37.2202 83.0618 38.7739Z" stroke="black"/>
<path d="M29.6392 25V19.1818H33.2869V19.9375H30.517V21.7102H33.0966V22.4631H30.517V24.2443H33.321V25H29.6392ZM35.2408 22.4091V25H34.3913V20.6364H35.2067V21.3466H35.2607C35.361 21.1155 35.5182 20.9299 35.7322 20.7898C35.9482 20.6496 36.2199 20.5795 36.5476 20.5795C36.8449 20.5795 37.1054 20.642 37.3288 20.767C37.5523 20.8902 37.7256 21.0739 37.8487 21.3182C37.9718 21.5625 38.0334 21.8646 38.0334 22.2244V25H37.1839V22.3267C37.1839 22.0104 37.1016 21.7633 36.9368 21.5852C36.772 21.4053 36.5457 21.3153 36.2578 21.3153C36.0608 21.3153 35.8857 21.358 35.7322 21.4432C35.5807 21.5284 35.4605 21.6534 35.3714 21.8182C35.2843 21.9811 35.2408 22.178 35.2408 22.4091ZM41.0107 25.0881C40.5883 25.0881 40.2247 24.9924 39.9197 24.8011C39.6167 24.608 39.3838 24.3419 39.2209 24.0028C39.058 23.6638 38.9766 23.2756 38.9766 22.8381C38.9766 22.3949 39.0599 22.0038 39.2266 21.6648C39.3932 21.3239 39.6281 21.0578 39.9311 20.8665C40.2341 20.6752 40.5911 20.5795 41.0021 20.5795C41.3336 20.5795 41.629 20.6411 41.8885 20.7642C42.148 20.8854 42.3572 21.0559 42.5163 21.2756C42.6773 21.4953 42.773 21.7519 42.8033 22.0455H41.9766C41.9311 21.8409 41.8269 21.6648 41.6641 21.517C41.5031 21.3693 41.2872 21.2955 41.0163 21.2955C40.7796 21.2955 40.5722 21.358 40.3942 21.483C40.218 21.6061 40.0807 21.7822 39.9822 22.0114C39.8838 22.2386 39.8345 22.5076 39.8345 22.8182C39.8345 23.1364 39.8828 23.411 39.9794 23.642C40.076 23.8731 40.2124 24.0521 40.3885 24.179C40.5665 24.3059 40.7758 24.3693 41.0163 24.3693C41.1773 24.3693 41.3232 24.34 41.4538 24.2812C41.5864 24.2206 41.6972 24.1345 41.7862 24.0227C41.8771 23.911 41.9406 23.7765 41.9766 23.6193H42.8033C42.773 23.9015 42.6811 24.1534 42.5277 24.375C42.3743 24.5966 42.1688 24.7708 41.9112 24.8977C41.6555 25.0246 41.3554 25.0881 41.0107 25.0881ZM45.5497 25.0881C45.1406 25.0881 44.7836 24.9943 44.4787 24.8068C44.1738 24.6193 43.937 24.357 43.7685 24.0199C43.5999 23.6828 43.5156 23.2888 43.5156 22.8381C43.5156 22.3854 43.5999 21.9896 43.7685 21.6506C43.937 21.3116 44.1738 21.0483 44.4787 20.8608C44.7836 20.6733 45.1406 20.5795 45.5497 20.5795C45.9588 20.5795 46.3158 20.6733 46.6207 20.8608C46.9257 21.0483 47.1624 21.3116 47.331 21.6506C47.4995 21.9896 47.5838 22.3854 47.5838 22.8381C47.5838 23.2888 47.4995 23.6828 47.331 24.0199C47.1624 24.357 46.9257 24.6193 46.6207 24.8068C46.3158 24.9943 45.9588 25.0881 45.5497 25.0881ZM45.5526 24.375C45.8177 24.375 46.0374 24.3049 46.2116 24.1648C46.3859 24.0246 46.5147 23.8381 46.598 23.6051C46.6832 23.3722 46.7259 23.1155 46.7259 22.8352C46.7259 22.5568 46.6832 22.3011 46.598 22.0682C46.5147 21.8333 46.3859 21.6449 46.2116 21.5028C46.0374 21.3608 45.8177 21.2898 45.5526 21.2898C45.2855 21.2898 45.0639 21.3608 44.8878 21.5028C44.7135 21.6449 44.5838 21.8333 44.4986 22.0682C44.4152 22.3011 44.3736 22.5568 44.3736 22.8352C44.3736 23.1155 44.4152 23.3722 44.4986 23.6051C44.5838 23.8381 44.7135 24.0246 44.8878 24.1648C45.0639 24.3049 45.2855 24.375 45.5526 24.375ZM48.532 25V20.6364H49.353V21.3295H49.3984C49.478 21.0947 49.6181 20.91 49.8189 20.7756C50.0215 20.6392 50.2507 20.571 50.5064 20.571C50.5594 20.571 50.6219 20.5729 50.6939 20.5767C50.7678 20.5805 50.8255 20.5852 50.8672 20.5909V21.4034C50.8331 21.3939 50.7725 21.3835 50.6854 21.3722C50.5982 21.3589 50.5111 21.3523 50.424 21.3523C50.2232 21.3523 50.0443 21.3949 49.8871 21.4801C49.7318 21.5634 49.6087 21.6799 49.5178 21.8295C49.4268 21.9773 49.3814 22.1458 49.3814 22.3352V25H48.532ZM53.3267 25.0881C52.8968 25.0881 52.5265 24.9962 52.2159 24.8125C51.9072 24.6269 51.6686 24.3665 51.5 24.0312C51.3333 23.6941 51.25 23.2992 51.25 22.8466C51.25 22.3996 51.3333 22.0057 51.5 21.6648C51.6686 21.3239 51.9034 21.0578 52.2045 20.8665C52.5076 20.6752 52.8617 20.5795 53.267 20.5795C53.5133 20.5795 53.7519 20.6203 53.983 20.7017C54.214 20.7831 54.4214 20.911 54.6051 21.0852C54.7888 21.2595 54.9337 21.4858 55.0398 21.7642C55.1458 22.0407 55.1989 22.3769 55.1989 22.7727V23.0739H51.7301V22.4375H54.3665C54.3665 22.214 54.321 22.0161 54.2301 21.8438C54.1392 21.6695 54.0114 21.5322 53.8466 21.4318C53.6837 21.3314 53.4924 21.2812 53.2727 21.2812C53.0341 21.2812 52.8258 21.34 52.6477 21.4574C52.4716 21.5729 52.3352 21.7244 52.2386 21.9119C52.1439 22.0975 52.0966 22.2992 52.0966 22.517V23.0142C52.0966 23.3059 52.1477 23.554 52.25 23.7585C52.3542 23.9631 52.4991 24.1193 52.6847 24.2273C52.8703 24.3333 53.0871 24.3864 53.3352 24.3864C53.4962 24.3864 53.643 24.3636 53.7756 24.3182C53.9081 24.2708 54.0227 24.2008 54.1193 24.108C54.2159 24.0152 54.2898 23.9006 54.3409 23.7642L55.1449 23.9091C55.0805 24.1458 54.965 24.3532 54.7983 24.5312C54.6335 24.7074 54.4261 24.8447 54.1761 24.9432C53.928 25.0398 53.6449 25.0881 53.3267 25.0881Z" fill="black"/>
</svg>
