<svg width="20" height="17" viewBox="0 0 20 17" fill="none" xmlns="http://www.w3.org/2000/svg">
<path d="M13 0.5C13.5304 0.5 14.0391 0.710714 14.4142 1.08579C14.7893 1.46086 15 1.96957 15 2.5V3.5H16.52C16.8198 3.50004 17.1157 3.56746 17.3859 3.69728C17.6561 3.8271 17.8936 4.01599 18.081 4.25L19.561 6.101C19.8451 6.45569 19.9999 6.89656 20 7.351V11.5C20 12.0304 19.7893 12.5391 19.4142 12.9142C19.0391 13.2893 18.5304 13.5 18 13.5C18 14.2956 17.6839 15.0587 17.1213 15.6213C16.5587 16.1839 15.7956 16.5 15 16.5C14.2044 16.5 13.4413 16.1839 12.8787 15.6213C12.3161 15.0587 12 14.2956 12 13.5H8C8 13.894 7.9224 14.2841 7.77164 14.6481C7.62087 15.012 7.3999 15.3427 7.12132 15.6213C6.84274 15.8999 6.51203 16.1209 6.14805 16.2716C5.78407 16.4224 5.39397 16.5 5 16.5C4.60603 16.5 4.21593 16.4224 3.85195 16.2716C3.48797 16.1209 3.15726 15.8999 2.87868 15.6213C2.6001 15.3427 2.37913 15.012 2.22836 14.6481C2.0776 14.2841 2 13.894 2 13.5C1.46957 13.5 0.960859 13.2893 0.585786 12.9142C0.210714 12.5391 0 12.0304 0 11.5V2.5C0 1.96957 0.210714 1.46086 0.585786 1.08579C0.960859 0.710714 1.46957 0.5 2 0.5H13ZM5 12.5C4.73478 12.5 4.48043 12.6054 4.29289 12.7929C4.10536 12.9804 4 13.2348 4 13.5C4 13.7652 4.10536 14.0196 4.29289 14.2071C4.48043 14.3946 4.73478 14.5 5 14.5C5.26522 14.5 5.51957 14.3946 5.70711 14.2071C5.89464 14.0196 6 13.7652 6 13.5C6 13.2348 5.89464 12.9804 5.70711 12.7929C5.51957 12.6054 5.26522 12.5 5 12.5ZM15 12.5C14.7348 12.5 14.4804 12.6054 14.2929 12.7929C14.1054 12.9804 14 13.2348 14 13.5C14 13.7652 14.1054 14.0196 14.2929 14.2071C14.4804 14.3946 14.7348 14.5 15 14.5C15.2652 14.5 15.5196 14.3946 15.7071 14.2071C15.8946 14.0196 16 13.7652 16 13.5C16 13.2348 15.8946 12.9804 15.7071 12.7929C15.5196 12.6054 15.2652 12.5 15 12.5ZM13 2.5H2V11.5H2.764C3.03445 11.1969 3.3637 10.952 3.73173 10.7801C4.09976 10.6082 4.4989 10.5128 4.9049 10.4999C5.3109 10.487 5.71529 10.5568 6.0935 10.705C6.4717 10.8532 6.81584 11.0767 7.105 11.362L7.236 11.5H12.764L12.879 11.379L13 11.264V2.5ZM16.52 5.5H15V10.5C15.82 10.5 16.563 10.83 17.105 11.362L17.236 11.5H18V7.35L16.52 5.5Z" fill="#292929"/>
</svg>
