<svg width="32" height="32" viewBox="0 0 32 32" fill="none" xmlns="http://www.w3.org/2000/svg">
<g clip-path="url(#clip0_465_3342)">
<path d="M22.07 17.5753C22.1601 17.5753 22.2326 17.4992 22.2326 17.4046V16.7705C22.2326 16.6768 22.1593 16.5998 22.07 16.5998H20.4446V15.9413H22.07C22.1601 15.9413 22.2326 15.8652 22.2326 15.7707V15.1373C22.2326 15.0436 22.1593 14.9666 22.07 14.9666H20.4446V14.3082H22.07C22.1601 14.3082 22.2326 14.2321 22.2326 14.1375V13.5042C22.2326 13.4105 22.1593 13.3335 22.07 13.3335H19.6777C19.5876 13.3335 19.5151 13.4096 19.5151 13.5042V13.5075V17.4013V17.4046C19.5151 17.4992 19.5876 17.5753 19.6777 17.5753H22.07Z" fill="white"/>
<path d="M13.2216 17.5753C13.3117 17.5753 13.3843 17.4992 13.3843 17.4046V16.7705C13.3843 16.6768 13.3109 16.5998 13.2216 16.5998H11.5962V13.5042C11.5962 13.4105 11.5229 13.3335 11.4336 13.3335H10.8293C10.7392 13.3335 10.6667 13.4096 10.6667 13.5042V17.4013V17.4046C10.6667 17.4992 10.7392 17.5753 10.8293 17.5753H13.2216Z" fill="white"/>
<path d="M14.6614 13.3335H14.0579C13.9681 13.3335 13.8953 13.4099 13.8953 13.5042V17.4038C13.8953 17.4981 13.9681 17.5745 14.0579 17.5745H14.6614C14.7512 17.5745 14.824 17.4981 14.824 17.4038V13.5042C14.824 13.4099 14.7512 13.3335 14.6614 13.3335Z" fill="white"/>
<path d="M18.7722 13.3335H18.168C18.0779 13.3335 18.0053 13.4096 18.0053 13.5042V15.8209L16.305 13.4113C16.301 13.4054 16.2962 13.3996 16.2922 13.3937C16.2922 13.3937 16.2922 13.3937 16.2914 13.3929C16.2882 13.3896 16.285 13.3854 16.2819 13.382C16.2811 13.3812 16.2795 13.3803 16.2787 13.3795C16.2755 13.377 16.2731 13.3745 16.2699 13.372C16.2683 13.3711 16.2667 13.3695 16.2651 13.3686C16.2627 13.3661 16.2595 13.3645 16.2563 13.3628C16.2548 13.3619 16.2532 13.3603 16.2516 13.3594C16.2484 13.3578 16.246 13.3561 16.2428 13.3544C16.2412 13.3536 16.2396 13.3527 16.238 13.3519C16.2348 13.3502 16.2316 13.3486 16.2284 13.3477C16.2269 13.3477 16.2253 13.346 16.2229 13.346C16.2197 13.3452 16.2165 13.3435 16.2133 13.3427C16.2117 13.3427 16.2093 13.3419 16.2077 13.341C16.2045 13.341 16.2013 13.3394 16.1982 13.3385C16.1958 13.3385 16.1934 13.3385 16.191 13.3377C16.1878 13.3377 16.1854 13.3368 16.1822 13.3368C16.179 13.3368 16.1766 13.3368 16.1734 13.3368C16.1718 13.3368 16.1695 13.3368 16.1679 13.3368H15.5676C15.4775 13.3368 15.405 13.413 15.405 13.5075V17.408C15.405 17.5025 15.4775 17.5787 15.5676 17.5787H16.1718C16.2619 17.5787 16.3345 17.5025 16.3345 17.408V15.0921L18.0364 17.505C18.0484 17.5226 18.0627 17.5368 18.0787 17.5477C18.0787 17.5477 18.0803 17.5485 18.0803 17.5494C18.0835 17.5519 18.0867 17.5536 18.0906 17.5561C18.0922 17.5569 18.0938 17.5577 18.0954 17.5586C18.0978 17.5603 18.101 17.5611 18.1034 17.5628C18.1058 17.5644 18.109 17.5653 18.1114 17.5661C18.113 17.5661 18.1146 17.5678 18.1162 17.5678C18.1201 17.5695 18.1233 17.5703 18.1273 17.5711C18.1273 17.5711 18.1289 17.5711 18.1297 17.5711C18.1433 17.5745 18.1576 17.577 18.172 17.577H18.7722C18.8623 17.577 18.9349 17.5009 18.9349 17.4063V13.5058C18.9349 13.4113 18.8623 13.3352 18.7722 13.3352V13.3335Z" fill="white"/>
<path fill-rule="evenodd" clip-rule="evenodd" d="M16 32C24.8366 32 32 24.8366 32 16C32 7.16344 24.8366 0 16 0C7.16344 0 0 7.16344 0 16C0 24.8366 7.16344 32 16 32ZM15.9991 6.66667C21.1455 6.66667 25.3325 10.2331 25.3325 14.6157L25.3333 14.6166C25.3333 16.3709 24.685 17.9501 23.3325 19.5073C21.3744 21.8723 16.9961 24.7537 16 25.1939C15.0305 25.6224 15.1437 24.9509 15.1883 24.6865C15.1895 24.6792 15.1907 24.6723 15.1918 24.6657C15.2154 24.519 15.3246 23.8275 15.3246 23.8275C15.3552 23.5772 15.3884 23.1892 15.294 22.9416C15.1892 22.6683 14.7759 22.5271 14.4718 22.4583C9.98689 21.8357 6.66667 18.5453 6.66667 14.6157C6.66667 10.2331 10.8528 6.66667 15.9991 6.66667Z" fill="white"/>
</g>
<defs>
<clipPath id="clip0_465_3342">
<rect width="32" height="32" fill="white"/>
</clipPath>
</defs>
</svg>
