<svg width="25" height="25" viewBox="0 0 25 25" fill="none" xmlns="http://www.w3.org/2000/svg">
<path d="M14.8847 7.21973C15.0557 7.21976 15.2242 7.26056 15.3763 7.33875C15.5284 7.41694 15.6596 7.53026 15.7591 7.66931L15.807 7.74191L17.1106 9.91454C17.239 10.1288 17.316 10.37 17.3354 10.619L17.3402 10.7443V15.8242C17.3403 16.0956 17.2378 16.3569 17.0533 16.5559C16.8688 16.7549 16.6159 16.8767 16.3453 16.8971L16.2646 16.8998H8.73572C8.46437 16.8999 8.20301 16.7974 8.00404 16.6129C7.80507 16.4284 7.6832 16.1755 7.66285 15.9049L7.66016 15.8242V10.7443C7.66017 10.4942 7.71835 10.2475 7.83009 10.0237L7.89033 9.91401L9.19283 7.74191C9.28081 7.59518 9.40253 7.47155 9.54788 7.38129C9.69322 7.29103 9.85801 7.23675 10.0285 7.22295L10.1157 7.21973H14.8847ZM16.2646 10.9842H8.73572V15.8242H16.2646V10.9842ZM11.9624 8.29529H10.1157L9.14766 9.90863H11.9624V8.29529ZM14.8847 8.29529H13.038V9.90863H15.8527L14.8847 8.29529Z" fill="#292929"/>
<rect x="11.4248" y="10.4468" width="2.15112" height="3.22668" stroke="#292929" stroke-width="1.07556"/>
<path fill-rule="evenodd" clip-rule="evenodd" d="M12.4999 20.18C16.9845 20.18 20.62 16.5446 20.62 12.06C20.62 7.57541 16.9845 3.93994 12.4999 3.93994C8.01535 3.93994 4.37988 7.57541 4.37988 12.06C4.37988 14.3448 5.32354 16.4092 6.84236 17.8847L5.45213 19.3225C3.55731 17.4833 2.37988 14.9092 2.37988 12.06C2.37988 6.47084 6.91078 1.93994 12.4999 1.93994C14.2925 1.93994 15.9762 2.40601 17.4365 3.22357L16.4599 4.85126C17.7596 5.50111 19.1676 7.28819 19.7092 8.1005L21.3367 7.12399C22.154 8.58415 22.62 10.2677 22.62 12.06C22.62 17.6491 18.0891 22.18 12.4999 22.18C11.7835 22.18 11.0845 22.1056 10.4101 21.964L10.9609 20.0384C10.911 20.0282 10.8606 20.0167 10.8098 20.0039C11.355 20.1193 11.9204 20.18 12.4999 20.18Z" fill="#292929"/>
<path d="M16.9002 1.5L17.3402 4.14001L14.7002 5.02002" stroke="#292929" stroke-linecap="round"/>
<path d="M12.06 23.4996L10.124 21.2996L12.06 19.0996" stroke="#292929" stroke-linecap="round"/>
<path d="M18.2202 5.02051C18.5135 5.16718 19.2762 5.72451 19.9802 6.78052" stroke="#292929" stroke-linecap="round"/>
<path d="M8.5 21.0001C8.1902 20.8925 7.40157 20.7507 6.56725 19.7943" stroke="#292929" stroke-linecap="round"/>
</svg>
