<svg width="25" height="25" viewBox="0 0 25 25" fill="none" xmlns="http://www.w3.org/2000/svg">
<path d="M20.438 8.50002H21.5C22.0304 8.50002 22.5391 8.71074 22.9142 9.08581C23.2893 9.46088 23.5 9.96959 23.5 10.5V14.5C23.5 15.0305 23.2893 15.5392 22.9142 15.9142C22.5391 16.2893 22.0304 16.5 21.5 16.5H20.438C20.1942 18.4333 19.2533 20.2112 17.7917 21.5C16.3302 22.7888 14.4486 23.5 12.5 23.5V21.5C14.0913 21.5 15.6174 20.8679 16.7426 19.7427C17.8679 18.6174 18.5 17.0913 18.5 15.5V9.50002C18.5 7.90872 17.8679 6.3826 16.7426 5.25738C15.6174 4.13216 14.0913 3.50002 12.5 3.50002C10.9087 3.50002 9.38258 4.13216 8.25736 5.25738C7.13214 6.3826 6.5 7.90872 6.5 9.50002V16.5H3.5C2.96957 16.5 2.46086 16.2893 2.08579 15.9142C1.71071 15.5392 1.5 15.0305 1.5 14.5V10.5C1.5 9.96959 1.71071 9.46088 2.08579 9.08581C2.46086 8.71074 2.96957 8.50002 3.5 8.50002H4.562C4.80603 6.56692 5.74708 4.7893 7.20857 3.5007C8.67007 2.2121 10.5516 1.5011 12.5 1.5011C14.4484 1.5011 16.3299 2.2121 17.7914 3.5007C19.2529 4.7893 20.194 6.56692 20.438 8.50002ZM3.5 10.5V14.5H4.5V10.5H3.5ZM20.5 10.5V14.5H21.5V10.5H20.5ZM8.26 16.285L9.32 14.589C10.2731 15.1861 11.3754 15.5018 12.5 15.5C13.6246 15.5018 14.7269 15.1861 15.68 14.589L16.74 16.285C15.4693 17.0812 13.9995 17.5023 12.5 17.5C11.0005 17.5023 9.53074 17.0812 8.26 16.285Z" fill="#292929"/>
</svg>
