<svg width="20" height="20" viewBox="0 0 20 20" fill="none" xmlns="http://www.w3.org/2000/svg">
<g clip-path="url(#clip0_313_9683)">
<circle cx="10" cy="10" r="10" fill="#4F4F4F"/>
<path fill-rule="evenodd" clip-rule="evenodd" d="M12.667 5.52365H13.8098C14.4384 5.52365 14.9527 6.03793 14.9527 6.6665V10.7304C14.753 10.6885 14.5461 10.6665 14.334 10.6665C14.1552 10.6665 13.98 10.6821 13.8098 10.7121V6.6665H5.80985V13.5236H11.3373C11.3351 13.571 11.334 13.6186 11.334 13.6665C11.334 14.0171 11.3941 14.3537 11.5047 14.6665H5.80985C5.18128 14.6665 4.66699 14.1522 4.66699 13.5236V6.6665C4.66699 6.03793 5.18128 5.52365 5.80985 5.52365H6.95271C6.95271 3.92365 8.20985 2.6665 9.80985 2.6665C11.4098 2.6665 12.667 3.92365 12.667 5.52365ZM11.5241 5.52365C11.5241 4.55222 10.7813 3.80936 9.80985 3.80936C8.83842 3.80936 8.09556 4.55222 8.09556 5.52365H11.5241ZM8.09556 7.23793C8.09556 8.20936 8.83842 8.95222 9.80985 8.95222C10.7813 8.95222 11.5241 8.20936 11.5241 7.23793H12.667C12.667 8.83793 11.4098 10.0951 9.80985 10.0951C8.20985 10.0951 6.95271 8.83793 6.95271 7.23793H8.09556Z" fill="white"/>
<path d="M16.2925 14.157H14.7568V15.6926C14.7568 15.7741 14.7245 15.8522 14.6669 15.9098C14.6093 15.9674 14.5312 15.9998 14.4497 15.9998C14.3683 15.9998 14.2901 15.9674 14.2325 15.9098C14.1749 15.8522 14.1426 15.7741 14.1426 15.6926V14.157H12.6069C12.5255 14.157 12.4474 14.1246 12.3898 14.067C12.3322 14.0094 12.2998 13.9313 12.2998 13.8499C12.2998 13.7684 12.3322 13.6903 12.3898 13.6327C12.4474 13.5751 12.5255 13.5427 12.6069 13.5427H14.1426V12.0071C14.1426 11.9256 14.1749 11.8475 14.2325 11.7899C14.2901 11.7323 14.3683 11.7 14.4497 11.7C14.5312 11.7 14.6093 11.7323 14.6669 11.7899C14.7245 11.8475 14.7568 11.9256 14.7568 12.0071V13.5427H16.2925C16.3739 13.5427 16.4521 13.5751 16.5097 13.6327C16.5673 13.6903 16.5996 13.7684 16.5996 13.8499C16.5996 13.9313 16.5673 14.0094 16.5097 14.067C16.4521 14.1246 16.3739 14.157 16.2925 14.157Z" fill="white" stroke="white" stroke-width="0.460693"/>
</g>
<defs>
<clipPath id="clip0_313_9683">
<rect width="20" height="20" fill="white"/>
</clipPath>
</defs>
</svg>
