<svg width="21" height="17" viewBox="0 0 21 17" fill="none" xmlns="http://www.w3.org/2000/svg">
<path d="M13.5 0.5C14.0304 0.5 14.5391 0.710714 14.9142 1.08579C15.2893 1.46086 15.5 1.96957 15.5 2.5V3.5H17.02C17.3198 3.50004 17.6157 3.56746 17.8859 3.69728C18.1561 3.8271 18.3936 4.01599 18.581 4.25L20.061 6.101C20.3451 6.45569 20.4999 6.89656 20.5 7.351V11.5C20.5 12.0304 20.2893 12.5391 19.9142 12.9142C19.5391 13.2893 19.0304 13.5 18.5 13.5C18.5 14.2956 18.1839 15.0587 17.6213 15.6213C17.0587 16.1839 16.2956 16.5 15.5 16.5C14.7044 16.5 13.9413 16.1839 13.3787 15.6213C12.8161 15.0587 12.5 14.2956 12.5 13.5H8.5C8.5 13.894 8.4224 14.2841 8.27164 14.6481C8.12087 15.012 7.8999 15.3427 7.62132 15.6213C7.34274 15.8999 7.01203 16.1209 6.64805 16.2716C6.28407 16.4224 5.89397 16.5 5.5 16.5C5.10603 16.5 4.71593 16.4224 4.35195 16.2716C3.98797 16.1209 3.65726 15.8999 3.37868 15.6213C3.1001 15.3427 2.87913 15.012 2.72836 14.6481C2.5776 14.2841 2.5 13.894 2.5 13.5C1.96957 13.5 1.46086 13.2893 1.08579 12.9142C0.710714 12.5391 0.5 12.0304 0.5 11.5V2.5C0.5 1.96957 0.710714 1.46086 1.08579 1.08579C1.46086 0.710714 1.96957 0.5 2.5 0.5H13.5ZM5.5 12.5C5.23478 12.5 4.98043 12.6054 4.79289 12.7929C4.60536 12.9804 4.5 13.2348 4.5 13.5C4.5 13.7652 4.60536 14.0196 4.79289 14.2071C4.98043 14.3946 5.23478 14.5 5.5 14.5C5.76522 14.5 6.01957 14.3946 6.20711 14.2071C6.39464 14.0196 6.5 13.7652 6.5 13.5C6.5 13.2348 6.39464 12.9804 6.20711 12.7929C6.01957 12.6054 5.76522 12.5 5.5 12.5ZM15.5 12.5C15.2348 12.5 14.9804 12.6054 14.7929 12.7929C14.6054 12.9804 14.5 13.2348 14.5 13.5C14.5 13.7652 14.6054 14.0196 14.7929 14.2071C14.9804 14.3946 15.2348 14.5 15.5 14.5C15.7652 14.5 16.0196 14.3946 16.2071 14.2071C16.3946 14.0196 16.5 13.7652 16.5 13.5C16.5 13.2348 16.3946 12.9804 16.2071 12.7929C16.0196 12.6054 15.7652 12.5 15.5 12.5ZM13.5 2.5H2.5V11.5H3.264C3.53445 11.1969 3.8637 10.952 4.23173 10.7801C4.59976 10.6082 4.9989 10.5128 5.4049 10.4999C5.8109 10.487 6.21529 10.5568 6.5935 10.705C6.9717 10.8532 7.31584 11.0767 7.605 11.362L7.736 11.5H13.264L13.379 11.379L13.5 11.264V2.5ZM17.02 5.5H15.5V10.5C16.32 10.5 17.063 10.83 17.605 11.362L17.736 11.5H18.5V7.35L17.02 5.5Z" fill="#292929"/>
</svg>
