<svg width="46" height="51" viewBox="0 0 46 51" fill="none" xmlns="http://www.w3.org/2000/svg">
<path d="M17.0905 5.71428V5.23809M17.0905 5.23809V2.56305C17.0905 1.65204 15.9717 1.21552 15.3547 1.88582L5.61181 12.4709C5.19523 12.9235 5.28215 13.6413 5.79471 13.9814L16.9012 21.3506C17.5659 21.7916 18.4541 21.315 18.4541 20.5173V17.6667C18.4541 17.1144 18.9018 16.6667 19.4541 16.6667H26.3854C26.4008 16.6667 26.4137 16.6664 26.4291 16.6658C26.7241 16.654 30.111 16.5389 32.0901 17.3809C34.0309 18.2066 35.0113 19.0791 36.4082 20.7143C37.8399 22.3901 38.4642 23.5781 39.1354 25.7143C39.7242 27.5878 39.6784 28.7472 39.8172 30.7143C39.9678 32.847 39.5839 36.4454 39.3627 38.5714C39.3306 38.8797 39.3022 39.1216 39.2772 39.3114C39.2216 39.7333 39.2691 39.748 39.4685 39.372L42.5391 33.5816C42.5427 33.5748 42.5461 33.5682 42.5495 33.5613C42.651 33.3577 44.2544 30.1222 44.8171 27.8571C45.3357 25.77 45.4879 24.5376 45.4989 22.3809C45.5104 20.132 45.4236 18.824 44.8171 16.6667C44.3232 14.9097 43.962 13.9096 42.999 12.3809C41.8236 10.5152 40.9348 9.53488 39.1354 8.33333C37.4536 7.21022 36.7309 7.01795 34.8174 6.42857C32.6465 5.75991 30.9331 5.4694 28.6811 5.23809C26.5945 5.02378 23.3783 5.21448 23.0303 5.23614C23.0086 5.23749 22.9885 5.23809 22.9668 5.23809H17.0905Z" stroke="black"/>
<path d="M13.6817 18.8094L1.19092 22.8705C0.778994 23.0045 0.500122 23.3884 0.500122 23.8215V43.5602C0.500122 43.9929 0.7784 44.3765 1.18971 44.5108L17.6893 49.8985C17.891 49.9644 18.1085 49.9644 18.3102 49.8985L34.8098 44.5108C35.2211 44.3765 35.4994 43.9929 35.4994 43.5602V24.2688C35.4994 23.8498 35.2381 23.4752 34.8448 23.3304L18.6816 17.3809" stroke="black"/>
<path d="M0.727417 23.0952L17.1254 29.2797C17.5148 29.4266 17.7725 29.7992 17.7725 30.2154V49.7619" stroke="black"/>
<path d="M17.7726 29.5237L35.0449 23.5713" stroke="black"/>
</svg>
