<svg width="56" height="47" viewBox="0 0 56 47" fill="none" xmlns="http://www.w3.org/2000/svg">
<path d="M42.5981 37.4287H50.6864" stroke="black"/>
<path d="M42.5981 41.1431H50.6864" stroke="black"/>
<path d="M40.2237 33.1428H52.8514C53.5253 33.1428 54.1601 33.459 54.5661 33.9968C54.8476 34.3697 54.9999 34.8241 54.9999 35.2913V44.5777C54.9999 44.9406 54.8611 45.2898 54.612 45.5538C54.3433 45.8385 53.9691 45.9999 53.5776 45.9999H40.1805C39.6585 45.9999 39.1596 45.7847 38.8013 45.4051C38.4692 45.0531 38.2842 44.5875 38.2842 44.1036V35.0823C38.2842 34.7474 38.3709 34.4182 38.5359 34.1268C38.8802 33.5187 39.5249 33.1428 40.2237 33.1428Z" stroke="black"/>
<path d="M42.3286 32.5707C42.3286 32.6713 42.3522 32.5709 42.3404 31.428M50.9561 32.8564C50.9561 32.8564 50.9946 31.2884 50.9561 30.285C50.9087 29.0536 51.0044 28.3277 50.6865 27.1422C50.4673 26.3248 50.3769 25.8071 49.8776 25.1422C49.4578 24.5831 49.1447 24.2919 48.5296 23.9993C47.8504 23.6763 47.3863 23.6848 46.6423 23.7136C45.7747 23.7472 45.0247 23.9993 44.4855 24.2851C43.9463 24.5708 43.7548 24.7233 43.407 25.1422C42.8774 25.7802 42.8678 25.9993 42.5982 27.1422C42.4235 27.8827 42.3286 30.285 42.3404 31.428M42.3286 33.1422L42.3404 31.428" stroke="black"/>
<path d="M35.5884 21.1428H44.755" stroke="black"/>
<path d="M30.1963 25.7141H40.4414" stroke="black"/>
<path d="M2.6958 23.4286L9.16639 20" stroke="black"/>
<path d="M20.4902 14.8568L38.8236 6.2854" stroke="black"/>
<path d="M8.89706 38.2856L1.45122 20.1132C0.639601 18.1324 1.53135 15.8637 3.47454 14.9656L32.2826 1.65225C34.2661 0.735631 36.618 1.58021 37.5653 3.54921L42.8677 14.5714" stroke="black"/>
<rect x="13.9802" y="19.3564" width="9.2451" height="6.42854" stroke="black"/>
<ellipse cx="13.8901" cy="36.7996" rx="0.434069" ry="0.459998" fill="black"/>
<ellipse cx="16.4944" cy="36.7996" rx="0.434069" ry="0.459998" fill="black"/>
<ellipse cx="19.0991" cy="36.7996" rx="0.434069" ry="0.459998" fill="black"/>
<ellipse cx="21.7036" cy="36.7996" rx="0.434069" ry="0.459998" fill="black"/>
<ellipse cx="24.3076" cy="36.7996" rx="0.434069" ry="0.459998" fill="black"/>
<ellipse cx="26.9123" cy="36.7996" rx="0.434069" ry="0.459998" fill="black"/>
<ellipse cx="29.5166" cy="36.7996" rx="0.434069" ry="0.459998" fill="black"/>
<ellipse cx="32.1211" cy="36.7996" rx="0.434069" ry="0.459998" fill="black"/>
<path d="M38.0145 40.2861H13.1665C10.9574 40.2861 9.1665 38.4953 9.1665 36.2861V18.8577C9.1665 16.6485 10.9574 14.8577 13.1665 14.8577H44.5293C46.7384 14.8577 48.5293 16.6485 48.5293 18.8577V24.0005" stroke="black"/>
</svg>
