<svg width="47" height="47" viewBox="0 0 47 47" fill="none" xmlns="http://www.w3.org/2000/svg">
<path d="M34.3182 23.5139V25.4789C34.3182 25.6031 34.295 25.7262 34.2499 25.842L34.1003 26.226C33.9507 26.61 33.5807 26.8629 33.1686 26.8629H32.6872H26.3964M26.3964 26.8629V26.791C26.3964 26.5304 26.2946 26.28 26.1128 26.0933L25.9918 25.9691C25.8036 25.7759 25.5452 25.6669 25.2755 25.6669H22.6245C22.3547 25.6669 22.0963 25.7759 21.9081 25.9691L21.7872 26.0933C21.6053 26.28 21.5035 26.5304 21.5035 26.791V27.2214C21.5035 27.3011 21.5131 27.3805 21.5319 27.458L21.6284 27.854C21.6971 28.1361 21.885 28.3744 22.1433 28.5071L22.4535 28.6663C22.5948 28.7388 22.7514 28.7767 22.9102 28.7767H24.9481C25.1334 28.7767 25.3149 28.7252 25.4726 28.6281L25.989 28.31C26.2422 28.154 26.3964 27.8779 26.3964 27.5806V27.5806V26.8629Z" stroke="black"/>
<path d="M11.0186 12.27C11.0186 12.27 10.9305 10.953 11.0188 10.1171C11.1092 9.26081 11.4015 8.76208 11.7178 7.96438C12.0415 7.14812 12.3323 6.72672 12.883 6.05065C13.5035 5.28886 13.9768 4.71098 14.7465 4.10957C15.6906 3.37191 15.7915 3.23742 16.8435 2.67427C17.8923 2.11278 18.4877 1.75538 19.6394 1.47819C20.6179 1.24268 21.432 1.0808 22.4356 1.02695C23.7986 0.953809 24.8189 1.02645 26.1636 1.26632C27.0995 1.43328 27.6219 1.59607 28.4935 1.98397C29.4671 2.41726 29.9452 2.56842 30.8234 3.17989C31.5764 3.70423 31.8397 3.88942 32.5009 4.53117C33.1105 5.12284 33.7295 5.69003 34.2706 6.34816C34.7291 6.90569 34.8651 7.35085 35.2501 7.96413C35.7356 8.73748 35.7528 9.21934 35.9491 10.1171C36.1683 11.1197 35.9491 12.27 35.9491 12.27" stroke="black"/>
<path d="M14.0476 23.3857C14.0476 23.3857 12.7902 23.6126 12.0322 23.3857C11.2377 23.1478 10.6637 22.7345 10.0167 22.1862C9.33771 21.6109 9.08963 21.3203 8.67338 20.5072C8.20327 19.5888 8.07457 18.9129 8.00134 17.8685C7.94893 17.1211 8.08141 16.6829 8.22553 15.9495C8.36273 15.2514 8.52969 14.8653 8.8973 14.2704C9.30689 13.6076 9.44737 13.3408 10.0168 12.8311C10.3523 12.5307 10.7301 12.284 11.1365 12.1115C11.7056 11.87 12.704 12.1115 12.704 12.1115" stroke="black"/>
<path d="M34.0848 12.2708C34.0848 12.2708 35.1181 12.2839 35.7158 12.51C36.1809 12.6859 36.6978 13.2551 36.8417 13.421C36.8681 13.4515 36.8949 13.4803 36.9237 13.5086C37.0982 13.6799 37.7577 14.3457 38.0457 14.9022C38.3157 15.4239 38.4148 15.755 38.5117 16.3375C38.6189 16.9821 38.5566 17.3325 38.5117 17.9848C38.4663 18.6438 38.3853 19.3942 38.0457 20.1649C37.7527 20.8296 37.8297 20.8258 37.3467 21.361C36.9969 21.7486 36.5868 22.2311 36.1817 22.5571C35.7642 22.8931 35.5215 23.1067 35.0168 23.2747C34.3244 23.5053 33.1528 23.2747 33.1528 23.2747" stroke="black"/>
<path d="M1 45.5215H45.0325C45.5588 45.5215 45.9936 45.1138 45.9989 44.5875C46.0073 43.7616 45.9706 42.5571 45.7347 41.694C45.4597 40.6884 45.1245 40.1774 44.5697 39.3019C43.7619 38.0271 43.08 37.4794 42.0068 36.4313C40.977 35.4255 40.424 34.7993 39.2108 34.0391C38.0279 33.2978 37.2344 33.1358 35.9489 32.6038C34.5069 32.007 33.7292 31.5567 32.2211 31.1685C31.2671 30.923 29.8011 30.7361 29.4861 30.6974C29.4448 30.6924 29.4049 30.6849 29.3647 30.6746V30.6746C28.6232 30.4842 28.4128 29.5196 28.9691 28.9937C29.1333 28.8385 29.2902 28.683 29.4251 28.5371C30.1398 27.765 30.4691 27.2624 31.0561 26.3842C31.6565 25.4859 32.0479 24.9985 32.4541 23.992C32.9527 22.7563 33.2029 21.9673 33.386 20.643C33.5909 19.1602 33.5434 18.5717 33.619 17.294C33.7129 15.706 33.8126 14.3392 33.852 12.7489C33.882 11.5348 33.9663 10.8 33.619 9.63904C33.2184 8.29948 32.7723 7.74463 31.7931 6.76844C30.9052 5.88327 30.3782 5.54593 29.3155 4.89468C28.442 4.35935 27.5935 3.99151 26.6292 3.65863C25.7497 3.35499 25.2215 3.2854 24.2993 3.1802C23.1237 3.04608 22.4382 2.98682 21.2704 3.1802C19.935 3.40134 19.2161 3.75056 18.0085 4.37628C16.837 4.98331 16.1136 5.78892 15.2126 6.76844C14.5368 7.50308 14.2791 7.79133 13.8146 8.68219C13.2164 9.82933 12.8826 10.8578 12.8826 11.792C12.8826 12.7262 12.8826 13.0107 12.8826 13.9449C12.8826 14.8791 12.9242 15.6961 13.1156 16.8155C13.3718 18.3134 13.3425 19.1422 13.5816 20.643C13.7892 21.9468 13.8523 22.7462 14.2806 23.992C14.5515 24.78 14.7869 25.1936 15.2126 25.9058C15.7152 26.7468 16.6863 27.8773 16.8265 28.0391C16.8383 28.0527 16.8498 28.0651 16.8623 28.078L17.445 28.6762C18.0375 29.2846 17.6509 30.3222 16.8086 30.4305C16.2591 30.5012 15.6888 30.5882 15.2126 30.6901C13.4378 31.0699 12.4518 31.3916 10.7857 32.1254C9.36416 32.7515 8.57147 33.1484 7.29081 34.0391C6.32608 34.7101 5.7551 35.0774 4.96088 35.9528C4.20385 36.7872 3.51413 37.4205 2.8639 38.345C2.06486 39.4811 1.95869 39.9088 1.46599 41.2156C0.809053 42.958 1.23299 45.9999 1.23299 45.9999" stroke="black"/>
</svg>
