<svg width="17" height="21" viewBox="0 0 17 21" fill="none" xmlns="http://www.w3.org/2000/svg">
<path d="M10.889 3.89322C10.889 3.38196 10.7999 2.8757 10.6268 2.40335C10.4537 1.931 10.2 1.50182 9.88011 1.1403C9.56026 0.778779 9.18054 0.492007 8.76264 0.296354C8.34473 0.100701 7.89682 -2.23481e-08 7.44449 0C6.99215 2.23481e-08 6.54424 0.100701 6.12634 0.296354C5.70843 0.492007 5.32872 0.77878 5.00887 1.1403C4.68902 1.50182 4.4353 1.931 4.2622 2.40335C4.08909 2.8757 4 3.38196 4 3.89322H4.42825C4.42825 3.44552 4.50627 3.00221 4.65785 2.58859C4.80943 2.17496 5.0316 1.79914 5.31168 1.48257C5.59177 1.16599 5.92428 0.914876 6.29022 0.743549C6.65617 0.572221 7.04839 0.48404 7.44449 0.48404C7.84059 0.48404 8.2328 0.572221 8.59875 0.743549C8.9647 0.914876 9.29721 1.16599 9.57729 1.48257C9.85737 1.79914 10.0795 2.17496 10.2311 2.58859C10.3827 3.00221 10.4607 3.44552 10.4607 3.89322H10.889Z" fill="white"/>
<path d="M8.69089 0.346526C8.08618 0.655955 7.57346 1.15629 7.2144 1.78732C6.85534 2.41836 6.66526 3.15321 6.667 3.90348L7.09525 3.90221C7.09372 3.24522 7.26018 2.60172 7.57459 2.04914C7.88901 1.49657 8.33799 1.05844 8.86751 0.787483L8.69089 0.346526Z" fill="white"/>
<path d="M13.556 3.89321C13.556 3.3613 13.4596 2.83503 13.2726 2.34688C13.0857 1.85873 12.8123 1.41905 12.4692 1.05496C12.1261 0.690875 11.7207 0.410111 11.2779 0.229993C10.8351 0.0498754 9.91449 0.0844833 9.44482 0.117966L9.92163 0.490787C10.3329 0.461467 10.7451 0.527713 11.1329 0.685437C11.5206 0.843161 11.8757 1.08902 12.1761 1.40784C12.4765 1.72666 12.7159 2.11167 12.8796 2.53913C13.0433 2.9666 13.1277 3.42743 13.1277 3.89321H13.556Z" fill="white"/>
<path d="M1.36514 5.27873C1.41002 4.76192 1.84264 4.36523 2.36139 4.36523H12.4446L11.1112 20.9999H1.0906C0.504176 20.9999 0.0436156 20.4976 0.0943463 19.9134L1.36514 5.27873Z" fill="white"/>
<path d="M12.889 4.36523H14.1113V18.6404L11.5557 20.528L12.889 4.36523Z" fill="white"/>
<path d="M14.4443 4.36523H14.7457C15.2661 4.36523 15.6995 4.76437 15.7423 5.28302L16.9999 20.528L14.4443 18.6404V4.36523Z" fill="white"/>
<path d="M14.3334 19.1123L16.7779 20.9999H11.7778L14.3334 19.1123Z" fill="white"/>
</svg>
