<svg width="16" height="16" viewBox="0 0 16 16" fill="none" xmlns="http://www.w3.org/2000/svg">
<path d="M7.99997 0C9.06084 0 10.0783 0.421427 10.8284 1.17157C11.5785 1.92172 12 2.93913 12 4C12 5.06087 11.5785 6.07828 10.8284 6.82843C10.0783 7.57857 9.06084 8 7.99997 8C6.9391 8 5.92169 7.57857 5.17154 6.82843C4.4214 6.07828 3.99997 5.06087 3.99997 4C3.99997 2.93913 4.4214 1.92172 5.17154 1.17157C5.92169 0.421427 6.9391 0 7.99997 0ZM7.99997 2C7.46954 2 6.96083 2.21071 6.58576 2.58579C6.21068 2.96086 5.99997 3.46957 5.99997 4C5.99997 4.53043 6.21068 5.03914 6.58576 5.41421C6.96083 5.78929 7.46954 6 7.99997 6C8.5304 6 9.03911 5.78929 9.41418 5.41421C9.78926 5.03914 9.99997 4.53043 9.99997 4C9.99997 3.46957 9.78926 2.96086 9.41418 2.58579C9.03911 2.21071 8.5304 2 7.99997 2ZM7.99997 9C10.67 9 16 10.33 16 13V16H-3.05176e-05V13C-3.05176e-05 10.33 5.32997 9 7.99997 9ZM7.99997 10.9C5.02997 10.9 1.89997 12.36 1.89997 13V14.1H14.1V13C14.1 12.36 10.97 10.9 7.99997 10.9Z" fill="#292929"/>
</svg>
