<svg width="18" height="18" viewBox="0 0 18 18" fill="none" xmlns="http://www.w3.org/2000/svg">
<path d="M6.49997 0C8.22388 0 9.87718 0.684819 11.0962 1.90381C12.3152 3.12279 13 4.77609 13 6.5C13 8.11 12.41 9.59 11.44 10.73L11.71 11H12.5L17.5 16L16 17.5L11 12.5V11.71L10.73 11.44C9.58997 12.41 8.10997 13 6.49997 13C4.77606 13 3.12276 12.3152 1.90378 11.0962C0.684789 9.87721 -3.05176e-05 8.22391 -3.05176e-05 6.5C-3.05176e-05 4.77609 0.684789 3.12279 1.90378 1.90381C3.12276 0.684819 4.77606 0 6.49997 0ZM6.49997 2C3.99997 2 1.99997 4 1.99997 6.5C1.99997 9 3.99997 11 6.49997 11C8.99997 11 11 9 11 6.5C11 4 8.99997 2 6.49997 2Z" fill="#292929"/>
</svg>
