<svg width="24" height="24" viewBox="0 0 24 24" fill="none" xmlns="http://www.w3.org/2000/svg">
<path fill-rule="evenodd" clip-rule="evenodd" d="M16.0402 5.01435H18.0459C19.1491 5.01435 20.0517 5.91693 20.0517 7.02009V14.7263C19.7389 14.6604 19.4146 14.6258 19.0822 14.6258C18.7261 14.6258 18.3793 14.6655 18.0459 14.7409V7.02009H4.00574V19.0545H14.4088C14.4044 19.1377 14.4021 19.2215 14.4021 19.3058C14.4021 19.9262 14.5229 20.5185 14.7421 21.0603H4.00574C2.90258 21.0603 2 20.1577 2 19.0545V7.02009C2 5.91693 2.90258 5.01435 4.00574 5.01435H6.01148C6.01148 2.20631 8.21779 0 11.0258 0C13.8339 0 16.0402 2.20631 16.0402 5.01435ZM14.0344 5.01435C14.0344 3.30947 12.7307 2.00574 11.0258 2.00574C9.32095 2.00574 8.01722 3.30947 8.01722 5.01435H14.0344ZM8.01722 8.02296C8.01722 9.72784 9.32095 11.0316 11.0258 11.0316C12.7307 11.0316 14.0344 9.72784 14.0344 8.02296H16.0402C16.0402 10.831 13.8339 13.0373 11.0258 13.0373C8.21779 13.0373 6.01148 10.831 6.01148 8.02296H8.01722Z" fill="#292929"/>
<path d="M22.4027 20.1664H19.7077V22.8615C19.7077 23.0044 19.6509 23.1415 19.5498 23.2426C19.4487 23.3437 19.3116 23.4005 19.1686 23.4005C19.0257 23.4005 18.8886 23.3437 18.7875 23.2426C18.6864 23.1415 18.6296 23.0044 18.6296 22.8615V20.1664H15.9345C15.7916 20.1664 15.6545 20.1096 15.5534 20.0085C15.4523 19.9074 15.3955 19.7703 15.3955 19.6274C15.3955 19.4844 15.4523 19.3473 15.5534 19.2462C15.6545 19.1451 15.7916 19.0884 15.9345 19.0884H18.6296V16.3933C18.6296 16.2503 18.6864 16.1132 18.7875 16.0121C18.8886 15.911 19.0257 15.8542 19.1686 15.8542C19.3116 15.8542 19.4487 15.911 19.5498 16.0121C19.6509 16.1132 19.7077 16.2503 19.7077 16.3933V19.0884H22.4027C22.5457 19.0884 22.6828 19.1451 22.7839 19.2462C22.885 19.3473 22.9418 19.4844 22.9418 19.6274C22.9418 19.7703 22.885 19.9074 22.7839 20.0085C22.6828 20.1096 22.5457 20.1664 22.4027 20.1664Z" fill="#292929" stroke="#292929" stroke-width="0.449182"/>
</svg>
